<?xml version="1.0" encoding="UTF-8" standalone="no"?>
<!-- Created with Inkscape (http://www.inkscape.org/) -->

<svg
   width="135.46666mm"
   height="135.46667mm"
   viewBox="0 0 135.46666 135.46667"
   version="1.1"
   id="svg1"
   xml:space="preserve"
   xmlns:inkscape="http://www.inkscape.org/namespaces/inkscape"
   xmlns:sodipodi="http://sodipodi.sourceforge.net/DTD/sodipodi-0.dtd"
   xmlns="http://www.w3.org/2000/svg"
   xmlns:svg="http://www.w3.org/2000/svg"><sodipodi:namedview
     id="namedview1"
     pagecolor="#ffffff"
     bordercolor="#666666"
     borderopacity="1.0"
     inkscape:showpageshadow="2"
     inkscape:pageopacity="0.0"
     inkscape:pagecheckerboard="0"
     inkscape:deskcolor="#d1d1d1"
     inkscape:document-units="mm" /><defs
     id="defs1" /><g
     inkscape:label="Layer 1"
     inkscape:groupmode="layer"
     id="layer1"
     transform="translate(-41.2179,-64.715963)"><g
       id="g5"
       transform="matrix(2.0000001,0,0,2.0000001,-41.217903,-64.715967)"><g
         id="g4"><circle
           style="fill:#0c0c0e;fill-opacity:1;stroke-width:0.421654;stroke-linecap:round;stroke-linejoin:round"
           id="path1"
           cx="75.084564"
           cy="98.582626"
           r="33.866665" /><circle
           style="fill:#e79c10;fill-opacity:1;stroke-width:0.378489;stroke-linecap:round;stroke-linejoin:round"
           id="circle1"
           cx="75.084564"
           cy="98.582626"
           r="30.399738" /></g><text
         xml:space="preserve"
         style="font-style:normal;font-variant:normal;font-weight:normal;font-stretch:normal;font-size:13.325px;line-height:1.25;font-family:Bahnschrift;-inkscape-font-specification:Bahnschrift;fill:#0c0c0e;fill-opacity:1;stroke-width:0.555;stroke-dasharray:none"
         x="63.610619"
         y="121.71522"
         id="text1"><tspan
           sodipodi:role="line"
           id="tspan1"
           style="font-style:normal;font-variant:normal;font-weight:normal;font-stretch:normal;font-family:Bahnschrift;-inkscape-font-specification:Bahnschrift;fill:#0c0c0e;fill-opacity:1;stroke-width:0.555;stroke-dasharray:none"
           x="63.610619"
           y="121.71522">R/C</tspan></text><path
         style="fill:#000000;stroke-width:0.35153"
         d="m 56.596804,106.90342 c -0.832942,-0.32097 -3.93987,-3.9212 -4.630512,-5.36572 -0.69104,-1.44534 -0.152466,-3.358388 1.194015,-4.241232 1.010741,-0.662707 -0.768749,-0.615807 22.34829,-0.589097 l 20.830623,0.024 0.429933,0.198787 c 1.767909,0.817457 2.298583,3.107942 1.059669,4.573812 -0.321801,0.38076 -7.011181,4.86235 -7.853377,5.26142 l -0.611875,0.28994 -16.13703,0.019 c -16.046001,0.0188 -16.139803,0.0179 -16.629736,-0.1709 z m 6.591472,-1.43017 c 2.042794,-0.69684 2.679102,-3.35843 1.181476,-4.94194 -1.956984,-2.069211 -5.338457,-0.577067 -5.16773,2.28039 0.119543,2.00088 2.081968,3.31115 3.986254,2.66155 z m 8.438838,-0.18378 c 2.76285,-1.50534 1.750416,-5.677467 -1.376856,-5.673877 -2.785712,0.003 -4.107801,3.231897 -2.120102,5.177537 0.890735,0.87189 2.41153,1.08774 3.496958,0.49634 z m 8.247143,0.13118 c 1.485226,-0.5557 2.284741,-2.34786 1.717748,-3.85043 -1.158451,-3.069951 -5.683777,-2.386824 -5.837656,0.88123 -0.105333,2.23623 2.008076,3.75933 4.119908,2.9692 z m 8.995595,-0.71473 c 1.886726,-0.83459 2.439243,-3.26672 1.090276,-4.799227 -1.890797,-2.148038 -5.436294,-0.686727 -5.271514,2.172717 0.121108,2.1022 2.288596,3.46371 4.181238,2.62651 z M 56.461458,102.3439 c 0.838766,-0.3988 1.416052,-1.47646 1.279331,-2.388187 -0.376323,-2.509488 -3.858255,-2.754645 -4.567778,-0.32163 -0.563283,1.931587 1.444869,3.586387 3.288447,2.709817 z m 39.810097,-0.97613 c 1.170065,-0.67351 1.276175,-2.344634 0.203555,-3.206088 -1.321717,-1.061494 -3.235871,-0.0483 -3.137089,1.660351 0.08638,1.494207 1.619564,2.302077 2.933534,1.545737 z M 55.647879,93.603179 c 0,-2.245827 0.185568,-2.769873 1.14536,-3.234497 l 0.401512,-0.194371 h 14.465121 c 16.155769,0 15.091469,-0.04147 16.459747,0.642215 0.397773,0.198773 6.783633,4.222099 7.049243,4.441289 0.02137,0.01756 -8.862185,0.03193 -19.74111,0.03193 H 55.647879 Z m 6.79016,-7.637508 c 7.03e-4,-2.867891 0.03858,-3.15126 0.492053,-3.667737 0.617975,-0.703838 0.337405,-0.676334 6.901627,-0.676334 7.229921,0 6.433662,-0.210604 7.721057,2.042105 0.844537,1.477758 1.493444,2.49018 2.414347,3.766851 0.368998,0.511553 0.700874,0.982398 0.737512,1.046349 0.05305,0.09274 -1.793262,0.116274 -9.100254,0.116274 h -9.166859 z m 27.960635,-1.196945 c -0.159387,-0.227561 -0.195846,-1.964531 -0.04707,-2.242532 0.08002,-0.149451 0.267798,-0.164615 2.038009,-0.164615 h 1.949914 v 1.302126 1.302114 H 92.43812 c -1.831592,0 -1.906483,-0.0076 -2.03946,-0.197093 z m 4.468933,0.136119 c -0.0346,-0.03473 -0.06297,-0.621085 -0.06297,-1.303157 v -1.240109 h 0.227332 c 1.006035,0 1.086931,2.254414 0.09147,2.549207 -0.105969,0.03142 -0.221111,0.02875 -0.255777,-0.0064 z M 78.535035,83.675918 c -0.259619,-0.453684 -0.472041,-0.851292 -0.472041,-0.883592 0,-0.03231 2.5531,-0.05864 5.673537,-0.05864 h 5.673536 v 0.883578 0.883579 h -5.201495 -5.201509 z"
         id="path4"
         sodipodi:nodetypes="cssccssscsccssssscsssssssssssssssssssscsssscscssssssccssscccsssscssssssscccccs" /></g></g></svg>
